<?xml version="1.0" encoding="UTF-8" standalone="no"?><svg xmlns="http://www.w3.org/2000/svg" xmlns:xlink="http://www.w3.org/1999/xlink" contentScriptType="application/ecmascript" contentStyleType="text/css" height="191px" preserveAspectRatio="none" style="width:640px;height:191px;" version="1.1" viewBox="0 0 640 191" width="640px" zoomAndPan="magnify"><defs><filter height="300%" id="f1r41ey1td1j" width="300%" x="-1" y="-1"><feGaussianBlur result="blurOut" stdDeviation="2.0"/><feColorMatrix in="blurOut" result="blurOut2" type="matrix" values="0 0 0 0 0 0 0 0 0 0 0 0 0 0 0 0 0 0 .4 0"/><feOffset dx="4.0" dy="4.0" in="blurOut2" result="blurOut3"/><feBlend in="SourceGraphic" in2="blurOut3" mode="normal"/></filter></defs><g><!--class Wykres--><rect fill="#FEFECE" filter="url(#f1r41ey1td1j)" height="56.1875" id="Wykres" style="stroke: #A80036; stroke-width: 1.5;" width="74" x="248.5" y="8"/><ellipse cx="263.5" cy="28.0938" fill="#FF0000" rx="11" ry="11" style="stroke: #A80036; stroke-width: 1.0;"/><path d="M263.5,31.375 L265.0313,25.8438 L265.0313,25.8438 L264.5156,25.8438 L264,25.2188 L264,24.8438 L264,24.4688 L264.5156,23.8438 L265.0313,23.8438 L266.9063,23.8438 L267.4844,23.8438 L268,24.4688 L268,24.8438 L268,25.2188 L267.4844,25.8438 L267.4844,25.8438 L267.0313,25.8438 L264.6875,33.8438 L262.3125,33.8438 L259.8438,25.8438 L259.5156,25.8438 L259.5156,25.8438 L259,25.2188 L259,24.8438 L259,24.4688 L259.5156,23.8438 L260.0938,23.8438 L261.9688,23.8438 L262.4844,23.8438 L263,24.4688 L263,24.8438 L263,25.2188 L262.4844,25.8438 L261.9688,25.8438 L261.9688,25.8438 L263.5,31.375 Z "/><text fill="#000000" font-family="sans-serif" font-size="12" font-style="italic" lengthAdjust="spacingAndGlyphs" textLength="46" x="275.5" y="25.457">«widok»</text><text fill="#000000" font-family="sans-serif" font-size="12" font-style="italic" lengthAdjust="spacingAndGlyphs" textLength="41" x="278" y="40.5508">Wykres</text><line style="stroke: #A80036; stroke-width: 1.5;" x1="249.5" x2="321.5" y1="48.1875" y2="48.1875"/><line style="stroke: #A80036; stroke-width: 1.5;" x1="249.5" x2="321.5" y1="56.1875" y2="56.1875"/><!--class WykresSłupkowyPoziomy--><rect fill="#FEFECE" filter="url(#f1r41ey1td1j)" height="56.1875" id="WykresSłupkowyPoziomy" style="stroke: #A80036; stroke-width: 1.5;" width="170" x="357.5" y="8"/><ellipse cx="372.5" cy="28.0938" fill="#FF0000" rx="11" ry="11" style="stroke: #A80036; stroke-width: 1.0;"/><path d="M372.5,31.375 L374.0313,25.8438 L374.0313,25.8438 L373.5156,25.8438 L373,25.2188 L373,24.8438 L373,24.4688 L373.5156,23.8438 L374.0313,23.8438 L375.9063,23.8438 L376.4844,23.8438 L377,24.4688 L377,24.8438 L377,25.2188 L376.4844,25.8438 L376.4844,25.8438 L376.0313,25.8438 L373.6875,33.8438 L371.3125,33.8438 L368.8438,25.8438 L368.5156,25.8438 L368.5156,25.8438 L368,25.2188 L368,24.8438 L368,24.4688 L368.5156,23.8438 L369.0938,23.8438 L370.9688,23.8438 L371.4844,23.8438 L372,24.4688 L372,24.8438 L372,25.2188 L371.4844,25.8438 L370.9688,25.8438 L370.9688,25.8438 L372.5,31.375 Z "/><text fill="#000000" font-family="sans-serif" font-size="12" font-style="italic" lengthAdjust="spacingAndGlyphs" textLength="46" x="432.5" y="25.457">«widok»</text><text fill="#000000" font-family="sans-serif" font-size="12" lengthAdjust="spacingAndGlyphs" textLength="138" x="386.5" y="40.5508">WykresSłupkowyPoziomy</text><line style="stroke: #A80036; stroke-width: 1.5;" x1="358.5" x2="526.5" y1="48.1875" y2="48.1875"/><line style="stroke: #A80036; stroke-width: 1.5;" x1="358.5" x2="526.5" y1="56.1875" y2="56.1875"/><!--class WykresLiniowy--><rect fill="#FEFECE" filter="url(#f1r41ey1td1j)" height="56.1875" id="WykresLiniowy" style="stroke: #A80036; stroke-width: 1.5;" width="113" x="6" y="124"/><ellipse cx="21" cy="144.0938" fill="#FF0000" rx="11" ry="11" style="stroke: #A80036; stroke-width: 1.0;"/><path d="M21,147.375 L22.5313,141.8438 L22.5313,141.8438 L22.0156,141.8438 L21.5,141.2188 L21.5,140.8438 L21.5,140.4688 L22.0156,139.8438 L22.5313,139.8438 L24.4063,139.8438 L24.9844,139.8438 L25.5,140.4688 L25.5,140.8438 L25.5,141.2188 L24.9844,141.8438 L24.9844,141.8438 L24.5313,141.8438 L22.1875,149.8438 L19.8125,149.8438 L17.3438,141.8438 L17.0156,141.8438 L17.0156,141.8438 L16.5,141.2188 L16.5,140.8438 L16.5,140.4688 L17.0156,139.8438 L17.5938,139.8438 L19.4688,139.8438 L19.9844,139.8438 L20.5,140.4688 L20.5,140.8438 L20.5,141.2188 L19.9844,141.8438 L19.4688,141.8438 L19.4688,141.8438 L21,147.375 Z "/><text fill="#000000" font-family="sans-serif" font-size="12" font-style="italic" lengthAdjust="spacingAndGlyphs" textLength="46" x="52.5" y="141.457">«widok»</text><text fill="#000000" font-family="sans-serif" font-size="12" lengthAdjust="spacingAndGlyphs" textLength="81" x="35" y="156.5508">WykresLiniowy</text><line style="stroke: #A80036; stroke-width: 1.5;" x1="7" x2="118" y1="164.1875" y2="164.1875"/><line style="stroke: #A80036; stroke-width: 1.5;" x1="7" x2="118" y1="172.1875" y2="172.1875"/><!--class WykresKołowy--><rect fill="#FEFECE" filter="url(#f1r41ey1td1j)" height="56.1875" id="WykresKołowy" style="stroke: #A80036; stroke-width: 1.5;" width="111" x="154" y="124"/><ellipse cx="169" cy="144.0938" fill="#FF0000" rx="11" ry="11" style="stroke: #A80036; stroke-width: 1.0;"/><path d="M169,147.375 L170.5313,141.8438 L170.5313,141.8438 L170.0156,141.8438 L169.5,141.2188 L169.5,140.8438 L169.5,140.4688 L170.0156,139.8438 L170.5313,139.8438 L172.4063,139.8438 L172.9844,139.8438 L173.5,140.4688 L173.5,140.8438 L173.5,141.2188 L172.9844,141.8438 L172.9844,141.8438 L172.5313,141.8438 L170.1875,149.8438 L167.8125,149.8438 L165.3438,141.8438 L165.0156,141.8438 L165.0156,141.8438 L164.5,141.2188 L164.5,140.8438 L164.5,140.4688 L165.0156,139.8438 L165.5938,139.8438 L167.4688,139.8438 L167.9844,139.8438 L168.5,140.4688 L168.5,140.8438 L168.5,141.2188 L167.9844,141.8438 L167.4688,141.8438 L167.4688,141.8438 L169,147.375 Z "/><text fill="#000000" font-family="sans-serif" font-size="12" font-style="italic" lengthAdjust="spacingAndGlyphs" textLength="46" x="199.5" y="141.457">«widok»</text><text fill="#000000" font-family="sans-serif" font-size="12" lengthAdjust="spacingAndGlyphs" textLength="79" x="183" y="156.5508">WykresKołowy</text><line style="stroke: #A80036; stroke-width: 1.5;" x1="155" x2="264" y1="164.1875" y2="164.1875"/><line style="stroke: #A80036; stroke-width: 1.5;" x1="155" x2="264" y1="172.1875" y2="172.1875"/><!--class WykresWarstwowy--><rect fill="#FEFECE" filter="url(#f1r41ey1td1j)" height="56.1875" id="WykresWarstwowy" style="stroke: #A80036; stroke-width: 1.5;" width="134" x="79.5" y="8"/><ellipse cx="94.5" cy="28.0938" fill="#FF0000" rx="11" ry="11" style="stroke: #A80036; stroke-width: 1.0;"/><path d="M94.5,31.375 L96.0313,25.8438 L96.0313,25.8438 L95.5156,25.8438 L95,25.2188 L95,24.8438 L95,24.4688 L95.5156,23.8438 L96.0313,23.8438 L97.9063,23.8438 L98.4844,23.8438 L99,24.4688 L99,24.8438 L99,25.2188 L98.4844,25.8438 L98.4844,25.8438 L98.0313,25.8438 L95.6875,33.8438 L93.3125,33.8438 L90.8438,25.8438 L90.5156,25.8438 L90.5156,25.8438 L90,25.2188 L90,24.8438 L90,24.4688 L90.5156,23.8438 L91.0938,23.8438 L92.9688,23.8438 L93.4844,23.8438 L94,24.4688 L94,24.8438 L94,25.2188 L93.4844,25.8438 L92.9688,25.8438 L92.9688,25.8438 L94.5,31.375 Z "/><text fill="#000000" font-family="sans-serif" font-size="12" font-style="italic" lengthAdjust="spacingAndGlyphs" textLength="46" x="136.5" y="25.457">«widok»</text><text fill="#000000" font-family="sans-serif" font-size="12" lengthAdjust="spacingAndGlyphs" textLength="102" x="108.5" y="40.5508">WykresWarstwowy</text><line style="stroke: #A80036; stroke-width: 1.5;" x1="80.5" x2="212.5" y1="48.1875" y2="48.1875"/><line style="stroke: #A80036; stroke-width: 1.5;" x1="80.5" x2="212.5" y1="56.1875" y2="56.1875"/><!--class WykresPunktowy--><rect fill="#FEFECE" filter="url(#f1r41ey1td1j)" height="56.1875" id="WykresPunktowy" style="stroke: #A80036; stroke-width: 1.5;" width="124" x="300.5" y="124"/><ellipse cx="315.5" cy="144.0938" fill="#FF0000" rx="11" ry="11" style="stroke: #A80036; stroke-width: 1.0;"/><path d="M315.5,147.375 L317.0313,141.8438 L317.0313,141.8438 L316.5156,141.8438 L316,141.2188 L316,140.8438 L316,140.4688 L316.5156,139.8438 L317.0313,139.8438 L318.9063,139.8438 L319.4844,139.8438 L320,140.4688 L320,140.8438 L320,141.2188 L319.4844,141.8438 L319.4844,141.8438 L319.0313,141.8438 L316.6875,149.8438 L314.3125,149.8438 L311.8438,141.8438 L311.5156,141.8438 L311.5156,141.8438 L311,141.2188 L311,140.8438 L311,140.4688 L311.5156,139.8438 L312.0938,139.8438 L313.9688,139.8438 L314.4844,139.8438 L315,140.4688 L315,140.8438 L315,141.2188 L314.4844,141.8438 L313.9688,141.8438 L313.9688,141.8438 L315.5,147.375 Z "/><text fill="#000000" font-family="sans-serif" font-size="12" font-style="italic" lengthAdjust="spacingAndGlyphs" textLength="46" x="352.5" y="141.457">«widok»</text><text fill="#000000" font-family="sans-serif" font-size="12" lengthAdjust="spacingAndGlyphs" textLength="92" x="329.5" y="156.5508">WykresPunktowy</text><line style="stroke: #A80036; stroke-width: 1.5;" x1="301.5" x2="423.5" y1="164.1875" y2="164.1875"/><line style="stroke: #A80036; stroke-width: 1.5;" x1="301.5" x2="423.5" y1="172.1875" y2="172.1875"/><!--class WykresSłupkowyPionowy--><rect fill="#FEFECE" filter="url(#f1r41ey1td1j)" height="56.1875" id="WykresSłupkowyPionowy" style="stroke: #A80036; stroke-width: 1.5;" width="170" x="459.5" y="124"/><ellipse cx="474.5" cy="144.0938" fill="#FF0000" rx="11" ry="11" style="stroke: #A80036; stroke-width: 1.0;"/><path d="M474.5,147.375 L476.0313,141.8438 L476.0313,141.8438 L475.5156,141.8438 L475,141.2188 L475,140.8438 L475,140.4688 L475.5156,139.8438 L476.0313,139.8438 L477.9063,139.8438 L478.4844,139.8438 L479,140.4688 L479,140.8438 L479,141.2188 L478.4844,141.8438 L478.4844,141.8438 L478.0313,141.8438 L475.6875,149.8438 L473.3125,149.8438 L470.8438,141.8438 L470.5156,141.8438 L470.5156,141.8438 L470,141.2188 L470,140.8438 L470,140.4688 L470.5156,139.8438 L471.0938,139.8438 L472.9688,139.8438 L473.4844,139.8438 L474,140.4688 L474,140.8438 L474,141.2188 L473.4844,141.8438 L472.9688,141.8438 L472.9688,141.8438 L474.5,147.375 Z "/><text fill="#000000" font-family="sans-serif" font-size="12" font-style="italic" lengthAdjust="spacingAndGlyphs" textLength="46" x="534.5" y="141.457">«widok»</text><text fill="#000000" font-family="sans-serif" font-size="12" lengthAdjust="spacingAndGlyphs" textLength="138" x="488.5" y="156.5508">WykresSłupkowyPionowy</text><line style="stroke: #A80036; stroke-width: 1.5;" x1="460.5" x2="628.5" y1="164.1875" y2="164.1875"/><line style="stroke: #A80036; stroke-width: 1.5;" x1="460.5" x2="628.5" y1="172.1875" y2="172.1875"/><!--link WykresWarstwowy to Wykres--><path d="M213.557,36 C218.457,36 223.358,36 228.258,36 " fill="none" id="WykresWarstwowy-Wykres" style="stroke: #A80036; stroke-width: 1.0;"/><polygon fill="none" points="228.404,29,248.404,36,228.404,43,228.404,29" style="stroke: #A80036; stroke-width: 1.0;"/><!--link Wykres to WykresSłupkowyPoziomy--><path d="M342.64,36 C347.514,36 352.387,36 357.261,36 " fill="none" id="Wykres-WykresSłupkowyPoziomy" style="stroke: #A80036; stroke-width: 1.0;"/><polygon fill="none" points="342.604,43,322.604,36,342.603,29,342.604,43" style="stroke: #A80036; stroke-width: 1.0;"/><!--link Wykres to WykresLiniowy--><path d="M230.614,65.058 C195.525,82.9964 150.254,106.1393 115.532,123.8896 " fill="none" id="Wykres-WykresLiniowy" style="stroke: #A80036; stroke-width: 1.0;"/><polygon fill="none" points="227.431,58.824,248.426,55.953,233.804,71.289,227.431,58.824" style="stroke: #A80036; stroke-width: 1.0;"/><!--link Wykres to WykresKołowy--><path d="M256.303,80.7959 C246.659,95.2612 236.215,110.9271 227.645,123.7824 " fill="none" id="Wykres-WykresKołowy" style="stroke: #A80036; stroke-width: 1.0;"/><polygon fill="none" points="250.571,76.775,267.489,64.016,262.219,84.5403,250.571,76.775" style="stroke: #A80036; stroke-width: 1.0;"/><!--link Wykres to WykresPunktowy--><path d="M315.081,80.7959 C324.852,95.2612 335.433,110.9271 344.116,123.7824 " fill="none" id="Wykres-WykresPunktowy" style="stroke: #A80036; stroke-width: 1.0;"/><polygon fill="none" points="309.142,84.5081,303.748,64.016,320.743,76.672,309.142,84.5081" style="stroke: #A80036; stroke-width: 1.0;"/><!--link Wykres to WykresSłupkowyPionowy--><path d="M340.934,63.969 C396.243,89.2176 442.216,108.7672 478.421,123.8674 " fill="none" id="Wykres-WykresSłupkowyPionowy" style="stroke: #A80036; stroke-width: 1.0;"/><polygon fill="none" points="337.902,70.279,322.649,55.57,343.746,57.557,337.902,70.279" style="stroke: #A80036; stroke-width: 1.0;"/><!--
@startuml

abstract class Wykres <<(V,red) widok>>
class WykresSłupkowyPoziomy <<(V,red) widok>>
class WykresLiniowy <<(V,red) widok>>
class WykresKołowy <<(V,red) widok>>
class WykresWarstwowy <<(V,red) widok>>
class WykresPunktowy <<(V,red) widok>>
class WykresSłupkowyPionowy <<(V,red) widok>>

WykresWarstwowy -|> Wykres
Wykres <|- WykresSłupkowyPoziomy
Wykres <|- - WykresLiniowy
Wykres <|- - WykresKołowy
Wykres <|- - WykresPunktowy
Wykres <|- - WykresSłupkowyPionowy

@enduml

PlantUML version 1.2018.11(Sat Sep 22 18:43:53 CEST 2018)
(GPL source distribution)
Java Runtime: OpenJDK Runtime Environment
JVM: OpenJDK 64-Bit Server VM
Java Version: 1.8.0_152-release-1248-b8
Operating System: Windows 10
OS Version: 10.0
Default Encoding: Cp1250
Language: pl
Country: PL
--></g></svg>