<?xml version="1.0" encoding="UTF-8" standalone="no"?><svg xmlns="http://www.w3.org/2000/svg" xmlns:xlink="http://www.w3.org/1999/xlink" contentScriptType="application/ecmascript" contentStyleType="text/css" height="684px" preserveAspectRatio="none" style="width:828px;height:684px;" version="1.1" viewBox="0 0 828 684" width="828px" zoomAndPan="magnify"><defs><filter height="300%" id="f18xil8z9gcomn" width="300%" x="-1" y="-1"><feGaussianBlur result="blurOut" stdDeviation="2.0"/><feColorMatrix in="blurOut" result="blurOut2" type="matrix" values="0 0 0 0 0 0 0 0 0 0 0 0 0 0 0 0 0 0 .4 0"/><feOffset dx="4.0" dy="4.0" in="blurOut2" result="blurOut3"/><feBlend in="SourceGraphic" in2="blurOut3" mode="normal"/></filter></defs><g><!--class SzablonOkien--><rect fill="#FEFECE" filter="url(#f18xil8z9gcomn)" height="70.0234" id="SzablonOkien" style="stroke: #A80036; stroke-width: 1.5;" width="108" x="353.5" y="8"/><ellipse cx="368.5" cy="28.0938" fill="#800080" rx="11" ry="11" style="stroke: #A80036; stroke-width: 1.0;"/><path d="M369.5,25.8438 L369.5,31.8438 L370.5,31.8438 L370.9844,31.8438 L371.5,32.4688 L371.5,32.8438 L371.5,33.2188 L370.9844,33.8438 L370.5,33.8438 L366.5,33.8438 L366.0156,33.8438 L365.5,33.2188 L365.5,32.8438 L365.5,32.4688 L366.0156,31.8438 L366.5,31.8438 L367.5,31.8438 L367.5,25.8438 L365.5,25.8438 L365.5,27.8438 L365.5,28.3281 L364.875,28.8438 L364.5,28.8438 L364.125,28.8438 L363.5,28.3281 L363.5,27.8438 L363.5,23.8438 L373.5,23.8438 L373.5,27.8438 L373.5,28.3281 L372.875,28.8438 L372.5,28.8438 L372.125,28.8438 L371.5,28.3281 L371.5,27.8438 L371.5,25.8438 L369.5,25.8438 Z "/><text fill="#000000" font-family="sans-serif" font-size="12" font-style="italic" lengthAdjust="spacingAndGlyphs" textLength="59" x="391" y="25.457">«szablon»</text><text fill="#000000" font-family="sans-serif" font-size="12" lengthAdjust="spacingAndGlyphs" textLength="76" x="382.5" y="40.5508">SzablonOkien</text><line style="stroke: #A80036; stroke-width: 1.5;" x1="354.5" x2="460.5" y1="48.1875" y2="48.1875"/><text fill="#000000" font-family="sans-serif" font-size="11" lengthAdjust="spacingAndGlyphs" textLength="96" x="359.5" y="63.6064">+tytuł_strony: string</text><line style="stroke: #A80036; stroke-width: 1.5;" x1="354.5" x2="460.5" y1="70.0234" y2="70.0234"/><!--class StronaGłówna--><rect fill="#FEFECE" filter="url(#f18xil8z9gcomn)" height="56.1875" id="StronaGłówna" style="stroke: #A80036; stroke-width: 1.5;" width="110" x="352.5" y="138"/><ellipse cx="367.5" cy="158.0938" fill="#00FFFF" rx="11" ry="11" style="stroke: #A80036; stroke-width: 1.0;"/><path d="M367.5,159.375 L366.4375,163.8438 L363.875,163.8438 L363.0313,155.8438 L362.5156,155.8438 L362,155.2188 L362,154.8438 L362,154.4688 L362.5156,153.8438 L363.0313,153.8438 L366,153.8438 L366.4844,153.8438 L367,154.4688 L367,154.8438 L367,155.2188 L366.4844,155.8438 L366,155.8438 L365,155.8438 L365.5,160.5156 L366.3594,156.8438 L368.6406,156.8438 L369.5,160.5156 L370,155.8438 L369,155.8438 L368.5156,155.8438 L368,155.2188 L368,154.8438 L368,154.4688 L368.5156,153.8438 L369,153.8438 L371.9688,153.8438 L372.4844,153.8438 L373,154.4688 L373,154.8438 L373,155.2188 L372.4844,155.8438 L371.9688,155.8438 L371.1094,163.8438 L368.5625,163.8438 L367.5,159.375 Z "/><text fill="#000000" font-family="sans-serif" font-size="12" font-style="italic" lengthAdjust="spacingAndGlyphs" textLength="42" x="399.5" y="155.457">«okno»</text><text fill="#000000" font-family="sans-serif" font-size="12" lengthAdjust="spacingAndGlyphs" textLength="78" x="381.5" y="170.5508">StronaGłówna</text><line style="stroke: #A80036; stroke-width: 1.5;" x1="353.5" x2="461.5" y1="178.1875" y2="178.1875"/><line style="stroke: #A80036; stroke-width: 1.5;" x1="353.5" x2="461.5" y1="186.1875" y2="186.1875"/><!--class MenuBoczne--><rect fill="#FEFECE" filter="url(#f18xil8z9gcomn)" height="56.1875" id="MenuBoczne" style="stroke: #A80036; stroke-width: 1.5;" width="102" x="252.5" y="254"/><ellipse cx="267.5" cy="274.0938" fill="#FF0000" rx="11" ry="11" style="stroke: #A80036; stroke-width: 1.0;"/><path d="M267.5,277.375 L269.0313,271.8438 L269.0313,271.8438 L268.5156,271.8438 L268,271.2188 L268,270.8438 L268,270.4688 L268.5156,269.8438 L269.0313,269.8438 L270.9063,269.8438 L271.4844,269.8438 L272,270.4688 L272,270.8438 L272,271.2188 L271.4844,271.8438 L271.4844,271.8438 L271.0313,271.8438 L268.6875,279.8438 L266.3125,279.8438 L263.8438,271.8438 L263.5156,271.8438 L263.5156,271.8438 L263,271.2188 L263,270.8438 L263,270.4688 L263.5156,269.8438 L264.0938,269.8438 L265.9688,269.8438 L266.4844,269.8438 L267,270.4688 L267,270.8438 L267,271.2188 L266.4844,271.8438 L265.9688,271.8438 L265.9688,271.8438 L267.5,277.375 Z "/><text fill="#000000" font-family="sans-serif" font-size="12" font-style="italic" lengthAdjust="spacingAndGlyphs" textLength="46" x="293.5" y="271.457">«widok»</text><text fill="#000000" font-family="sans-serif" font-size="12" lengthAdjust="spacingAndGlyphs" textLength="70" x="281.5" y="286.5508">MenuBoczne</text><line style="stroke: #A80036; stroke-width: 1.5;" x1="253.5" x2="353.5" y1="294.1875" y2="294.1875"/><line style="stroke: #A80036; stroke-width: 1.5;" x1="253.5" x2="353.5" y1="302.1875" y2="302.1875"/><!--class PanelGłówny--><rect fill="#FEFECE" filter="url(#f18xil8z9gcomn)" height="56.1875" id="PanelGłówny" style="stroke: #A80036; stroke-width: 1.5;" width="104" x="460.5" y="254"/><ellipse cx="475.5" cy="274.0938" fill="#FF0000" rx="11" ry="11" style="stroke: #A80036; stroke-width: 1.0;"/><path d="M475.5,277.375 L477.0313,271.8438 L477.0313,271.8438 L476.5156,271.8438 L476,271.2188 L476,270.8438 L476,270.4688 L476.5156,269.8438 L477.0313,269.8438 L478.9063,269.8438 L479.4844,269.8438 L480,270.4688 L480,270.8438 L480,271.2188 L479.4844,271.8438 L479.4844,271.8438 L479.0313,271.8438 L476.6875,279.8438 L474.3125,279.8438 L471.8438,271.8438 L471.5156,271.8438 L471.5156,271.8438 L471,271.2188 L471,270.8438 L471,270.4688 L471.5156,269.8438 L472.0938,269.8438 L473.9688,269.8438 L474.4844,269.8438 L475,270.4688 L475,270.8438 L475,271.2188 L474.4844,271.8438 L473.9688,271.8438 L473.9688,271.8438 L475.5,277.375 Z "/><text fill="#000000" font-family="sans-serif" font-size="12" font-style="italic" lengthAdjust="spacingAndGlyphs" textLength="46" x="502.5" y="271.457">«widok»</text><text fill="#000000" font-family="sans-serif" font-size="12" lengthAdjust="spacingAndGlyphs" textLength="72" x="489.5" y="286.5508">PanelGłówny</text><line style="stroke: #A80036; stroke-width: 1.5;" x1="461.5" x2="563.5" y1="294.1875" y2="294.1875"/><line style="stroke: #A80036; stroke-width: 1.5;" x1="461.5" x2="563.5" y1="302.1875" y2="302.1875"/><!--class PanelOpcjiGłównych--><rect fill="#FEFECE" filter="url(#f18xil8z9gcomn)" height="111.5313" id="PanelOpcjiGłównych" style="stroke: #A80036; stroke-width: 1.5;" width="145" x="6" y="370"/><ellipse cx="21" cy="390.0938" fill="#FF0000" rx="11" ry="11" style="stroke: #A80036; stroke-width: 1.0;"/><path d="M21,393.375 L22.5313,387.8438 L22.5313,387.8438 L22.0156,387.8438 L21.5,387.2188 L21.5,386.8438 L21.5,386.4688 L22.0156,385.8438 L22.5313,385.8438 L24.4063,385.8438 L24.9844,385.8438 L25.5,386.4688 L25.5,386.8438 L25.5,387.2188 L24.9844,387.8438 L24.9844,387.8438 L24.5313,387.8438 L22.1875,395.8438 L19.8125,395.8438 L17.3438,387.8438 L17.0156,387.8438 L17.0156,387.8438 L16.5,387.2188 L16.5,386.8438 L16.5,386.4688 L17.0156,385.8438 L17.5938,385.8438 L19.4688,385.8438 L19.9844,385.8438 L20.5,386.4688 L20.5,386.8438 L20.5,387.2188 L19.9844,387.8438 L19.4688,387.8438 L19.4688,387.8438 L21,393.375 Z "/><text fill="#000000" font-family="sans-serif" font-size="12" font-style="italic" lengthAdjust="spacingAndGlyphs" textLength="46" x="68.5" y="387.457">«widok»</text><text fill="#000000" font-family="sans-serif" font-size="12" lengthAdjust="spacingAndGlyphs" textLength="113" x="35" y="402.5508">PanelOpcjiGłównych</text><line style="stroke: #A80036; stroke-width: 1.5;" x1="7" x2="150" y1="410.1875" y2="410.1875"/><line style="stroke: #A80036; stroke-width: 1.5;" x1="7" x2="150" y1="418.1875" y2="418.1875"/><text fill="#000000" font-family="sans-serif" font-size="11" lengthAdjust="spacingAndGlyphs" textLength="40" x="12" y="433.6064">+cofnij()</text><text fill="#000000" font-family="sans-serif" font-size="11" lengthAdjust="spacingAndGlyphs" textLength="55" x="12" y="447.4424">+powtórz()</text><text fill="#000000" font-family="sans-serif" font-size="11" lengthAdjust="spacingAndGlyphs" textLength="114" x="12" y="461.2783">+importuj_csv(e: event)</text><text fill="#000000" font-family="sans-serif" font-size="11" lengthAdjust="spacingAndGlyphs" textLength="82" x="12" y="475.1143">+eksportuj_csv()</text><!--class PanelWyboruTypuWykresu--><rect fill="#FEFECE" filter="url(#f18xil8z9gcomn)" height="70.0234" id="PanelWyboruTypuWykresu" style="stroke: #A80036; stroke-width: 1.5;" width="234" x="186.5" y="391"/><ellipse cx="226.7" cy="411.0938" fill="#FF0000" rx="11" ry="11" style="stroke: #A80036; stroke-width: 1.0;"/><path d="M226.7,414.375 L228.2313,408.8438 L228.2313,408.8438 L227.7156,408.8438 L227.2,408.2188 L227.2,407.8438 L227.2,407.4688 L227.7156,406.8438 L228.2313,406.8438 L230.1063,406.8438 L230.6844,406.8438 L231.2,407.4688 L231.2,407.8438 L231.2,408.2188 L230.6844,408.8438 L230.6844,408.8438 L230.2313,408.8438 L227.8875,416.8438 L225.5125,416.8438 L223.0438,408.8438 L222.7156,408.8438 L222.7156,408.8438 L222.2,408.2188 L222.2,407.8438 L222.2,407.4688 L222.7156,406.8438 L223.2938,406.8438 L225.1688,406.8438 L225.6844,406.8438 L226.2,407.4688 L226.2,407.8438 L226.2,408.2188 L225.6844,408.8438 L225.1688,408.8438 L225.1688,408.8438 L226.7,414.375 Z "/><text fill="#000000" font-family="sans-serif" font-size="12" font-style="italic" lengthAdjust="spacingAndGlyphs" textLength="46" x="296.3" y="408.457">«widok»</text><text fill="#000000" font-family="sans-serif" font-size="12" lengthAdjust="spacingAndGlyphs" textLength="146" x="246.3" y="423.5508">PanelWyboruTypuWykresu</text><line style="stroke: #A80036; stroke-width: 1.5;" x1="187.5" x2="419.5" y1="431.1875" y2="431.1875"/><line style="stroke: #A80036; stroke-width: 1.5;" x1="187.5" x2="419.5" y1="439.1875" y2="439.1875"/><text fill="#000000" font-family="sans-serif" font-size="11" lengthAdjust="spacingAndGlyphs" textLength="222" x="192.5" y="454.6064">+ustaw_typ_wykresu_jako(typ: TypWykresu)</text><!--class Wykres--><rect fill="#FEFECE" filter="url(#f18xil8z9gcomn)" height="83.8594" id="Wykres" style="stroke: #A80036; stroke-width: 1.5;" width="114" x="455.5" y="384"/><ellipse cx="488.5" cy="404.0938" fill="#FF0000" rx="11" ry="11" style="stroke: #A80036; stroke-width: 1.0;"/><path d="M488.5,407.375 L490.0313,401.8438 L490.0313,401.8438 L489.5156,401.8438 L489,401.2188 L489,400.8438 L489,400.4688 L489.5156,399.8438 L490.0313,399.8438 L491.9063,399.8438 L492.4844,399.8438 L493,400.4688 L493,400.8438 L493,401.2188 L492.4844,401.8438 L492.4844,401.8438 L492.0313,401.8438 L489.6875,409.8438 L487.3125,409.8438 L484.8438,401.8438 L484.5156,401.8438 L484.5156,401.8438 L484,401.2188 L484,400.8438 L484,400.4688 L484.5156,399.8438 L485.0938,399.8438 L486.9688,399.8438 L487.4844,399.8438 L488,400.4688 L488,400.8438 L488,401.2188 L487.4844,401.8438 L486.9688,401.8438 L486.9688,401.8438 L488.5,407.375 Z "/><text fill="#000000" font-family="sans-serif" font-size="12" font-style="italic" lengthAdjust="spacingAndGlyphs" textLength="46" x="504.5" y="401.457">«widok»</text><text fill="#000000" font-family="sans-serif" font-size="12" lengthAdjust="spacingAndGlyphs" textLength="40" x="507.5" y="416.5508">Wykres</text><line style="stroke: #A80036; stroke-width: 1.5;" x1="456.5" x2="568.5" y1="424.1875" y2="424.1875"/><text fill="#000000" font-family="sans-serif" font-size="11" lengthAdjust="spacingAndGlyphs" textLength="88" x="461.5" y="439.6064">+typ: TypWykresu</text><text fill="#000000" font-family="sans-serif" font-size="11" lengthAdjust="spacingAndGlyphs" textLength="102" x="461.5" y="453.4424">+dane: Array«Punkt»</text><line style="stroke: #A80036; stroke-width: 1.5;" x1="456.5" x2="568.5" y1="459.8594" y2="459.8594"/><!--class Punkt--><rect fill="#FEFECE" filter="url(#f18xil8z9gcomn)" height="75.6719" id="Punkt" style="stroke: #A80036; stroke-width: 1.5;" width="170" x="239.5" y="569.5"/><ellipse cx="304.75" cy="585.5" fill="#ADD1B2" rx="11" ry="11" style="stroke: #A80036; stroke-width: 1.0;"/><path d="M306.75,582 Q306.9531,581.5 307.1875,581.25 Q307.4219,581 307.6875,581 Q308.1563,581 308.4531,581.2813 Q308.75,581.5625 308.75,582.2188 L308.75,583.7813 Q308.75,584.4375 308.4688,584.7188 Q308.1875,585 307.75,585 Q307.3594,585 307.1094,584.8281 Q306.8594,584.6563 306.75,584.2031 Q306.7031,583.8906 306.5313,583.7188 Q306.2188,583.3906 305.6563,583.1953 Q305.0938,583 304.5313,583 Q303.8281,583 303.2422,583.2813 Q302.6563,583.5625 302.2031,584.1875 Q301.75,584.8125 301.75,585.6719 L301.75,586.5938 Q301.75,587.625 302.5938,588.3125 Q303.4375,589 304.9375,589 Q305.8281,589 306.4531,588.7969 Q306.8125,588.6875 307.2188,588.3281 Q307.4844,588.125 307.625,588.0625 Q307.7656,588 307.9375,588 Q308.2656,588 308.5078,588.2578 Q308.75,588.5156 308.75,588.875 Q308.75,589.2188 308.4063,589.625 Q307.9063,590.2188 307.1094,590.5469 Q306.0625,591 304.7813,591 Q303.2813,591 302.0781,590.4063 Q301.1094,589.9375 300.4297,588.9219 Q299.75,587.9063 299.75,586.7031 L299.75,585.6094 Q299.75,584.3594 300.3516,583.2656 Q300.9531,582.1719 302.0078,581.5859 Q303.0625,581 304.25,581 Q304.9688,581 305.5938,581.25 Q306.2188,581.5 306.75,582 Z "/><text fill="#000000" font-family="sans-serif" font-size="12" lengthAdjust="spacingAndGlyphs" textLength="31" x="325.25" y="590.4102">Punkt</text><line style="stroke: #A80036; stroke-width: 1.5;" x1="240.5" x2="408.5" y1="601.5" y2="601.5"/><text fill="#000000" font-family="sans-serif" font-size="11" lengthAdjust="spacingAndGlyphs" textLength="76" x="245.5" y="616.9189">+etykieta: string</text><line style="stroke: #A80036; stroke-width: 1.5;" x1="240.5" x2="408.5" y1="623.3359" y2="623.3359"/><text fill="#000000" font-family="sans-serif" font-size="11" lengthAdjust="spacingAndGlyphs" textLength="158" x="245.5" y="638.7549">+ustaw_etykietę(etykieta: string)</text><!--class TytułWykresu--><rect fill="#FEFECE" filter="url(#f18xil8z9gcomn)" height="83.8594" id="TytułWykresu" style="stroke: #A80036; stroke-width: 1.5;" width="136" x="444.5" y="565.5"/><ellipse cx="473.9" cy="585.5938" fill="#FF0000" rx="11" ry="11" style="stroke: #A80036; stroke-width: 1.0;"/><path d="M473.9,588.875 L475.4313,583.3438 L475.4313,583.3438 L474.9156,583.3438 L474.4,582.7188 L474.4,582.3438 L474.4,581.9688 L474.9156,581.3438 L475.4313,581.3438 L477.3063,581.3438 L477.8844,581.3438 L478.4,581.9688 L478.4,582.3438 L478.4,582.7188 L477.8844,583.3438 L477.8844,583.3438 L477.4313,583.3438 L475.0875,591.3438 L472.7125,591.3438 L470.2438,583.3438 L469.9156,583.3438 L469.9156,583.3438 L469.4,582.7188 L469.4,582.3438 L469.4,581.9688 L469.9156,581.3438 L470.4938,581.3438 L472.3688,581.3438 L472.8844,581.3438 L473.4,581.9688 L473.4,582.3438 L473.4,582.7188 L472.8844,583.3438 L472.3688,583.3438 L472.3688,583.3438 L473.9,588.875 Z "/><text fill="#000000" font-family="sans-serif" font-size="12" font-style="italic" lengthAdjust="spacingAndGlyphs" textLength="46" x="504.1" y="582.957">«widok»</text><text fill="#000000" font-family="sans-serif" font-size="12" lengthAdjust="spacingAndGlyphs" textLength="72" x="491.1" y="598.0508">TytułWykresu</text><line style="stroke: #A80036; stroke-width: 1.5;" x1="445.5" x2="579.5" y1="605.6875" y2="605.6875"/><text fill="#000000" font-family="sans-serif" font-size="11" lengthAdjust="spacingAndGlyphs" textLength="59" x="450.5" y="621.1064">+tytuł: string</text><line style="stroke: #A80036; stroke-width: 1.5;" x1="445.5" x2="579.5" y1="627.5234" y2="627.5234"/><text fill="#000000" font-family="sans-serif" font-size="11" lengthAdjust="spacingAndGlyphs" textLength="124" x="450.5" y="642.9424">+ustaw_tytuł(tytuł: string)</text><!--class TabelaDanych--><rect fill="#FEFECE" filter="url(#f18xil8z9gcomn)" height="83.8594" id="TabelaDanych" style="stroke: #A80036; stroke-width: 1.5;" width="134" x="627.5" y="384"/><ellipse cx="652.85" cy="404.0938" fill="#FF0000" rx="11" ry="11" style="stroke: #A80036; stroke-width: 1.0;"/><path d="M652.85,407.375 L654.3813,401.8438 L654.3813,401.8438 L653.8656,401.8438 L653.35,401.2188 L653.35,400.8438 L653.35,400.4688 L653.8656,399.8438 L654.3813,399.8438 L656.2563,399.8438 L656.8344,399.8438 L657.35,400.4688 L657.35,400.8438 L657.35,401.2188 L656.8344,401.8438 L656.8344,401.8438 L656.3813,401.8438 L654.0375,409.8438 L651.6625,409.8438 L649.1938,401.8438 L648.8656,401.8438 L648.8656,401.8438 L648.35,401.2188 L648.35,400.8438 L648.35,400.4688 L648.8656,399.8438 L649.4438,399.8438 L651.3188,399.8438 L651.8344,399.8438 L652.35,400.4688 L652.35,400.8438 L652.35,401.2188 L651.8344,401.8438 L651.3188,401.8438 L651.3188,401.8438 L652.85,407.375 Z "/><text fill="#000000" font-family="sans-serif" font-size="12" font-style="italic" lengthAdjust="spacingAndGlyphs" textLength="46" x="685.65" y="401.457">«widok»</text><text fill="#000000" font-family="sans-serif" font-size="12" lengthAdjust="spacingAndGlyphs" textLength="79" x="669.15" y="416.5508">TabelaDanych</text><line style="stroke: #A80036; stroke-width: 1.5;" x1="628.5" x2="760.5" y1="424.1875" y2="424.1875"/><line style="stroke: #A80036; stroke-width: 1.5;" x1="628.5" x2="760.5" y1="432.1875" y2="432.1875"/><text fill="#000000" font-family="sans-serif" font-size="11" lengthAdjust="spacingAndGlyphs" textLength="70" x="633.5" y="447.6064">+dodaj_serię()</text><text fill="#000000" font-family="sans-serif" font-size="11" lengthAdjust="spacingAndGlyphs" textLength="122" x="633.5" y="461.4424">+dodaj_wiersz_danych()</text><!--class SeriaDanych--><rect fill="#FEFECE" filter="url(#f18xil8z9gcomn)" height="131.0156" id="SeriaDanych" style="stroke: #A80036; stroke-width: 1.5;" width="201" x="616" y="542"/><ellipse cx="677.25" cy="558" fill="#ADD1B2" rx="11" ry="11" style="stroke: #A80036; stroke-width: 1.0;"/><path d="M679.25,554.5 Q679.4531,554 679.6875,553.75 Q679.9219,553.5 680.1875,553.5 Q680.6563,553.5 680.9531,553.7813 Q681.25,554.0625 681.25,554.7188 L681.25,556.2813 Q681.25,556.9375 680.9688,557.2188 Q680.6875,557.5 680.25,557.5 Q679.8594,557.5 679.6094,557.3281 Q679.3594,557.1563 679.25,556.7031 Q679.2031,556.3906 679.0313,556.2188 Q678.7188,555.8906 678.1563,555.6953 Q677.5938,555.5 677.0313,555.5 Q676.3281,555.5 675.7422,555.7813 Q675.1563,556.0625 674.7031,556.6875 Q674.25,557.3125 674.25,558.1719 L674.25,559.0938 Q674.25,560.125 675.0938,560.8125 Q675.9375,561.5 677.4375,561.5 Q678.3281,561.5 678.9531,561.2969 Q679.3125,561.1875 679.7188,560.8281 Q679.9844,560.625 680.125,560.5625 Q680.2656,560.5 680.4375,560.5 Q680.7656,560.5 681.0078,560.7578 Q681.25,561.0156 681.25,561.375 Q681.25,561.7188 680.9063,562.125 Q680.4063,562.7188 679.6094,563.0469 Q678.5625,563.5 677.2813,563.5 Q675.7813,563.5 674.5781,562.9063 Q673.6094,562.4375 672.9297,561.4219 Q672.25,560.4063 672.25,559.2031 L672.25,558.1094 Q672.25,556.8594 672.8516,555.7656 Q673.4531,554.6719 674.5078,554.0859 Q675.5625,553.5 676.75,553.5 Q677.4688,553.5 678.0938,553.75 Q678.7188,554 679.25,554.5 Z "/><text fill="#000000" font-family="sans-serif" font-size="12" lengthAdjust="spacingAndGlyphs" textLength="70" x="697.75" y="562.9102">SeriaDanych</text><line style="stroke: #A80036; stroke-width: 1.5;" x1="617" x2="816" y1="574" y2="574"/><text fill="#000000" font-family="sans-serif" font-size="11" lengthAdjust="spacingAndGlyphs" textLength="103" x="622" y="589.4189">+dane: Array&lt;string&gt;</text><text fill="#000000" font-family="sans-serif" font-size="11" lengthAdjust="spacingAndGlyphs" textLength="76" x="622" y="603.2549">+etykieta: string</text><text fill="#000000" font-family="sans-serif" font-size="11" lengthAdjust="spacingAndGlyphs" textLength="62" x="622" y="617.0908">+kolor: string</text><line style="stroke: #A80036; stroke-width: 1.5;" x1="617" x2="816" y1="623.5078" y2="623.5078"/><text fill="#000000" font-family="sans-serif" font-size="11" lengthAdjust="spacingAndGlyphs" textLength="189" x="622" y="638.9268">+ustaw_współrzędną(wartość: string)</text><text fill="#000000" font-family="sans-serif" font-size="11" lengthAdjust="spacingAndGlyphs" textLength="130" x="622" y="652.7627">+ustaw_kolor(kolor: string)</text><text fill="#000000" font-family="sans-serif" font-size="11" lengthAdjust="spacingAndGlyphs" textLength="158" x="622" y="666.5986">+ustaw_etykietę(etykieta: string)</text><!--link SzablonOkien to StronaGłówna--><path d="M407.5,98.127 C407.5,111.838 407.5,125.991 407.5,137.726 " fill="none" id="SzablonOkien-StronaGłówna" style="stroke: #A80036; stroke-width: 1.0;"/><polygon fill="none" points="400.5,98.027,407.5,78.027,414.5,98.027,400.5,98.027" style="stroke: #A80036; stroke-width: 1.0;"/><!--link StronaGłówna to MenuBoczne--><path d="M373.966,203.759 C359.131,220.02 341.991,238.808 328.33,253.782 " fill="none" id="StronaGłówna-MenuBoczne" style="stroke: #A80036; stroke-width: 1.0;"/><polygon fill="#A80036" points="382.853,194.016,375.8541,195.7524,374.765,202.8808,381.7639,201.1444,382.853,194.016" style="stroke: #A80036; stroke-width: 1.0;"/><!--link StronaGłówna to PanelGłówny--><path d="M441.357,203.759 C456.334,220.02 473.639,238.808 487.431,253.782 " fill="none" id="StronaGłówna-PanelGłówny" style="stroke: #A80036; stroke-width: 1.0;"/><polygon fill="#A80036" points="432.384,194.016,433.5069,201.1391,440.514,202.8423,439.3911,195.7191,432.384,194.016" style="stroke: #A80036; stroke-width: 1.0;"/><!--link MenuBoczne to PanelOpcjiGłównych--><path d="M249.356,317.171 C219.947,335.731 183.181,358.935 151.296,379.058 " fill="none" id="MenuBoczne-PanelOpcjiGłównych" style="stroke: #A80036; stroke-width: 1.0;"/><polygon fill="#A80036" points="260.65,310.043,253.4412,309.8623,250.5018,316.4471,257.7106,316.6278,260.65,310.043" style="stroke: #A80036; stroke-width: 1.0;"/><!--link MenuBoczne to PanelWyboruTypuWykresu--><path d="M303.5,323.277 C303.5,344.578 303.5,370.449 303.5,390.771 " fill="none" id="MenuBoczne-PanelWyboruTypuWykresu" style="stroke: #A80036; stroke-width: 1.0;"/><polygon fill="#A80036" points="303.5,310.043,299.5,316.043,303.5,322.043,307.5,316.043,303.5,310.043" style="stroke: #A80036; stroke-width: 1.0;"/><!--link PanelGłówny to Wykres--><path d="M512.5,323.106 C512.5,342.073 512.5,364.694 512.5,383.799 " fill="none" id="PanelGłówny-Wykres" style="stroke: #A80036; stroke-width: 1.0;"/><polygon fill="#A80036" points="512.5,310.043,508.5,316.043,512.5,322.043,516.5,316.043,512.5,310.043" style="stroke: #A80036; stroke-width: 1.0;"/><!--link Wykres to Punkt--><path d="M459.7,477.413 C429.065,506.663 391.152,542.862 363.276,569.477 " fill="none" id="Wykres-Punkt" style="stroke: #A80036; stroke-width: 1.0;"/><polygon fill="#FFFFFF" points="469.369,468.181,462.2672,469.4317,460.6902,476.4682,467.792,475.2176,469.369,468.181" style="stroke: #A80036; stroke-width: 1.0;"/><text fill="#000000" font-family="sans-serif" font-size="13" lengthAdjust="spacingAndGlyphs" textLength="20" x="441.2333" y="489.3978">0..*</text><!--link Wykres to TytułWykresu--><path d="M512.5,481.344 C512.5,508.285 512.5,540.296 512.5,565.2 " fill="none" id="Wykres-TytułWykresu" style="stroke: #A80036; stroke-width: 1.0;"/><polygon fill="#A80036" points="512.5,468.181,508.5,474.181,512.5,480.181,516.5,474.181,512.5,468.181" style="stroke: #A80036; stroke-width: 1.0;"/><!--link PanelGłówny to TabelaDanych--><path d="M557.644,318.223 C583.112,338.093 615.067,363.025 641.693,383.799 " fill="none" id="PanelGłówny-TabelaDanych" style="stroke: #A80036; stroke-width: 1.0;"/><polygon fill="#A80036" points="547.161,310.043,549.431,316.8875,556.6221,317.4246,554.3521,310.5801,547.161,310.043" style="stroke: #A80036; stroke-width: 1.0;"/><!--link TabelaDanych to SeriaDanych--><path d="M701.151,481.267 C703.494,500.382 706.15,522.057 708.587,541.937 " fill="none" id="TabelaDanych-SeriaDanych" style="stroke: #A80036; stroke-width: 1.0;"/><polygon fill="#FFFFFF" points="699.547,468.181,696.3066,474.6231,701.0068,480.0919,704.2472,473.6498,699.547,468.181" style="stroke: #A80036; stroke-width: 1.0;"/><text fill="#000000" font-family="sans-serif" font-size="13" lengthAdjust="spacingAndGlyphs" textLength="20" x="678.7886" y="489.3978">1..*</text><!--
@startuml

skinparam classAttributeIconSize 0

SzablonOkien <|- - StronaGłówna
StronaGłówna *- - MenuBoczne
StronaGłówna *- - PanelGłówny
MenuBoczne *- - PanelOpcjiGłównych
MenuBoczne *- - PanelWyboruTypuWykresu
PanelGłówny *- - Wykres
Wykres "0..*" o- - Punkt
Wykres *- - TytułWykresu
PanelGłówny *- - TabelaDanych
TabelaDanych "1..*" o- - SeriaDanych

class SzablonOkien << (T,purple) szablon >>{
    + tytuł_strony: string
}

class StronaGłówna <<(W,cyan) okno>>

class MenuBoczne <<(V,red) widok>>

class PanelOpcjiGłównych <<(V,red) widok>> {
    + cofnij()
    + powtórz()
    + importuj_csv(e: event)
    + eksportuj_csv()
}

class PanelWyboruTypuWykresu <<(V,red) widok>> {
    + ustaw_typ_wykresu_jako(typ: TypWykresu)
}

class PanelGłówny <<(V,red) widok>>

class Wykres <<(V,red) widok>> {
    + typ: TypWykresu
    + dane: Array<<Punkt>>
}

class TytułWykresu <<(V,red) widok>> {
    + tytuł: string
    + ustaw_tytuł(tytuł: string)
}

class Punkt {
    + etykieta: string
    + ustaw_etykietę(etykieta: string)
}

class TabelaDanych <<(V,red) widok>> {
    + dodaj_serię()
    + dodaj_wiersz_danych()
}

class SeriaDanych {
    + dane: Array<string>
    + etykieta: string
    + kolor: string
    + ustaw_współrzędną(wartość: string)
    + ustaw_kolor(kolor: string)
    + ustaw_etykietę(etykieta: string)
}

@enduml

PlantUML version 1.2018.11(Sat Sep 22 18:43:53 CEST 2018)
(GPL source distribution)
Java Runtime: OpenJDK Runtime Environment
JVM: OpenJDK 64-Bit Server VM
Java Version: 1.8.0_152-release-1248-b8
Operating System: Windows 10
OS Version: 10.0
Default Encoding: Cp1250
Language: pl
Country: PL
--></g></svg>