<?xml version="1.0" encoding="UTF-8" standalone="no"?><svg xmlns="http://www.w3.org/2000/svg" xmlns:xlink="http://www.w3.org/1999/xlink" contentScriptType="application/ecmascript" contentStyleType="text/css" height="440px" preserveAspectRatio="none" style="width:335px;height:440px;" version="1.1" viewBox="0 0 335 440" width="335px" zoomAndPan="magnify"><defs><filter height="300%" id="f1pfpi26qqxhyk" width="300%" x="-1" y="-1"><feGaussianBlur result="blurOut" stdDeviation="2.0"/><feColorMatrix in="blurOut" result="blurOut2" type="matrix" values="0 0 0 0 0 0 0 0 0 0 0 0 0 0 0 0 0 0 .4 0"/><feOffset dx="4.0" dy="4.0" in="blurOut2" result="blurOut3"/><feBlend in="SourceGraphic" in2="blurOut3" mode="normal"/></filter></defs><g><!--class A--><rect fill="#FEFECE" filter="url(#f1pfpi26qqxhyk)" height="75.6719" id="A" style="stroke: #A80036; stroke-width: 1.5;" width="71" x="6" y="354"/><ellipse cx="23.7" cy="370" fill="#ADD1B2" rx="11" ry="11" style="stroke: #A80036; stroke-width: 1.0;"/><path d="M25.7,366.5 Q25.9031,366 26.1375,365.75 Q26.3719,365.5 26.6375,365.5 Q27.1063,365.5 27.4031,365.7813 Q27.7,366.0625 27.7,366.7188 L27.7,368.2813 Q27.7,368.9375 27.4188,369.2188 Q27.1375,369.5 26.7,369.5 Q26.3094,369.5 26.0594,369.3281 Q25.8094,369.1563 25.7,368.7031 Q25.6531,368.3906 25.4813,368.2188 Q25.1688,367.8906 24.6063,367.6953 Q24.0438,367.5 23.4813,367.5 Q22.7781,367.5 22.1922,367.7813 Q21.6063,368.0625 21.1531,368.6875 Q20.7,369.3125 20.7,370.1719 L20.7,371.0938 Q20.7,372.125 21.5438,372.8125 Q22.3875,373.5 23.8875,373.5 Q24.7781,373.5 25.4031,373.2969 Q25.7625,373.1875 26.1688,372.8281 Q26.4344,372.625 26.575,372.5625 Q26.7156,372.5 26.8875,372.5 Q27.2156,372.5 27.4578,372.7578 Q27.7,373.0156 27.7,373.375 Q27.7,373.7188 27.3563,374.125 Q26.8563,374.7188 26.0594,375.0469 Q25.0125,375.5 23.7313,375.5 Q22.2313,375.5 21.0281,374.9063 Q20.0594,374.4375 19.3797,373.4219 Q18.7,372.4063 18.7,371.2031 L18.7,370.1094 Q18.7,368.8594 19.3016,367.7656 Q19.9031,366.6719 20.9578,366.0859 Q22.0125,365.5 23.2,365.5 Q23.9188,365.5 24.5438,365.75 Q25.1688,366 25.7,366.5 Z "/><text fill="#000000" font-family="sans-serif" font-size="12" lengthAdjust="spacingAndGlyphs" textLength="33" x="38.3" y="374.9102">Action</text><line style="stroke: #A80036; stroke-width: 1.5;" x1="7" x2="76" y1="386" y2="386"/><text fill="#000000" font-family="sans-serif" font-size="11" lengthAdjust="spacingAndGlyphs" textLength="53" x="12" y="401.4189">type: enum</text><text fill="#000000" font-family="sans-serif" font-size="11" lengthAdjust="spacingAndGlyphs" textLength="59" x="12" y="415.2549">other_props</text><line style="stroke: #A80036; stroke-width: 1.5;" x1="7" x2="76" y1="421.6719" y2="421.6719"/><!--class R--><rect fill="#FEFECE" filter="url(#f1pfpi26qqxhyk)" height="61.8359" id="R" style="stroke: #A80036; stroke-width: 1.5;" width="212" x="112.5" y="361"/><ellipse cx="190.75" cy="377" fill="#ADD1B2" rx="11" ry="11" style="stroke: #A80036; stroke-width: 1.0;"/><path d="M192.75,373.5 Q192.9531,373 193.1875,372.75 Q193.4219,372.5 193.6875,372.5 Q194.1563,372.5 194.4531,372.7813 Q194.75,373.0625 194.75,373.7188 L194.75,375.2813 Q194.75,375.9375 194.4688,376.2188 Q194.1875,376.5 193.75,376.5 Q193.3594,376.5 193.1094,376.3281 Q192.8594,376.1563 192.75,375.7031 Q192.7031,375.3906 192.5313,375.2188 Q192.2188,374.8906 191.6563,374.6953 Q191.0938,374.5 190.5313,374.5 Q189.8281,374.5 189.2422,374.7813 Q188.6563,375.0625 188.2031,375.6875 Q187.75,376.3125 187.75,377.1719 L187.75,378.0938 Q187.75,379.125 188.5938,379.8125 Q189.4375,380.5 190.9375,380.5 Q191.8281,380.5 192.4531,380.2969 Q192.8125,380.1875 193.2188,379.8281 Q193.4844,379.625 193.625,379.5625 Q193.7656,379.5 193.9375,379.5 Q194.2656,379.5 194.5078,379.7578 Q194.75,380.0156 194.75,380.375 Q194.75,380.7188 194.4063,381.125 Q193.9063,381.7188 193.1094,382.0469 Q192.0625,382.5 190.7813,382.5 Q189.2813,382.5 188.0781,381.9063 Q187.1094,381.4375 186.4297,380.4219 Q185.75,379.4063 185.75,378.2031 L185.75,377.1094 Q185.75,375.8594 186.3516,374.7656 Q186.9531,373.6719 188.0078,373.0859 Q189.0625,372.5 190.25,372.5 Q190.9688,372.5 191.5938,372.75 Q192.2188,373 192.75,373.5 Z "/><text fill="#000000" font-family="sans-serif" font-size="12" lengthAdjust="spacingAndGlyphs" textLength="47" x="211.25" y="381.9102">Reducer</text><line style="stroke: #A80036; stroke-width: 1.5;" x1="113.5" x2="323.5" y1="393" y2="393"/><line style="stroke: #A80036; stroke-width: 1.5;" x1="113.5" x2="323.5" y1="401" y2="401"/><text fill="#000000" font-family="sans-serif" font-size="11" lengthAdjust="spacingAndGlyphs" textLength="200" x="118.5" y="416.4189">reduce(state: State, action: Action): State</text><!--class St--><rect fill="#FEFECE" filter="url(#f1pfpi26qqxhyk)" height="48" id="St" style="stroke: #A80036; stroke-width: 1.5;" width="60" x="105.5" y="246"/><ellipse cx="120.5" cy="262" fill="#ADD1B2" rx="11" ry="11" style="stroke: #A80036; stroke-width: 1.0;"/><path d="M122.5,258.5 Q122.7031,258 122.9375,257.75 Q123.1719,257.5 123.4375,257.5 Q123.9063,257.5 124.2031,257.7813 Q124.5,258.0625 124.5,258.7188 L124.5,260.2813 Q124.5,260.9375 124.2188,261.2188 Q123.9375,261.5 123.5,261.5 Q123.1094,261.5 122.8594,261.3281 Q122.6094,261.1563 122.5,260.7031 Q122.4531,260.3906 122.2813,260.2188 Q121.9688,259.8906 121.4063,259.6953 Q120.8438,259.5 120.2813,259.5 Q119.5781,259.5 118.9922,259.7813 Q118.4063,260.0625 117.9531,260.6875 Q117.5,261.3125 117.5,262.1719 L117.5,263.0938 Q117.5,264.125 118.3438,264.8125 Q119.1875,265.5 120.6875,265.5 Q121.5781,265.5 122.2031,265.2969 Q122.5625,265.1875 122.9688,264.8281 Q123.2344,264.625 123.375,264.5625 Q123.5156,264.5 123.6875,264.5 Q124.0156,264.5 124.2578,264.7578 Q124.5,265.0156 124.5,265.375 Q124.5,265.7188 124.1563,266.125 Q123.6563,266.7188 122.8594,267.0469 Q121.8125,267.5 120.5313,267.5 Q119.0313,267.5 117.8281,266.9063 Q116.8594,266.4375 116.1797,265.4219 Q115.5,264.4063 115.5,263.2031 L115.5,262.1094 Q115.5,260.8594 116.1016,259.7656 Q116.7031,258.6719 117.7578,258.0859 Q118.8125,257.5 120,257.5 Q120.7188,257.5 121.3438,257.75 Q121.9688,258 122.5,258.5 Z "/><text fill="#000000" font-family="sans-serif" font-size="12" lengthAdjust="spacingAndGlyphs" textLength="28" x="134.5" y="266.9102">State</text><line style="stroke: #A80036; stroke-width: 1.5;" x1="106.5" x2="164.5" y1="278" y2="278"/><line style="stroke: #A80036; stroke-width: 1.5;" x1="106.5" x2="164.5" y1="286" y2="286"/><!--class Sr--><rect fill="#FEFECE" filter="url(#f1pfpi26qqxhyk)" height="70.0234" id="Sr" style="stroke: #A80036; stroke-width: 1.5;" width="94" x="150.5" y="116"/><ellipse cx="166.4" cy="136.0938" fill="#FFA500" rx="11" ry="11" style="stroke: #A80036; stroke-width: 1.0;"/><path d="M164.9,140.0938 Q164.6188,140.7344 164.4391,140.9141 Q164.2594,141.0938 164.0094,141.0938 Q163.5094,141.0938 163.2047,140.8672 Q162.9,140.6406 162.9,140.0938 L162.9,139.0938 Q162.9,138.5469 163.15,138.3203 Q163.4,138.0938 163.8063,138.0938 Q164.1188,138.0938 164.3375,138.1719 Q164.5563,138.25 164.6656,138.4375 Q164.775,138.625 164.9,138.6875 Q165.0563,138.8281 165.4625,138.9609 Q165.8688,139.0938 166.3531,139.0938 Q167.1031,139.0938 167.5875,138.6406 Q167.9,138.375 167.9,137.9844 Q167.9,137.7188 167.7438,137.4844 Q167.5875,137.25 167.2438,137.0938 Q167.025,136.9844 166.2438,136.8125 Q164.7906,136.5938 164.2828,136.25 Q163.775,135.9063 163.3375,135.2891 Q162.9,134.6719 162.9,133.9531 Q162.9,132.8125 163.7672,131.9531 Q164.6344,131.0938 166.0094,131.0938 Q166.5719,131.0938 166.8531,131.3438 Q167.1344,131.5938 167.9,132.0938 Q168.3375,131.0938 168.775,131.0938 Q169.275,131.0938 169.5875,131.3125 Q169.9,131.5313 169.9,132.0469 L169.9,133.125 Q169.9,133.6563 169.65,133.875 Q169.4,134.0938 169.0094,134.0938 Q168.6813,134.0938 168.4313,134 Q168.2438,133.9375 168.15,133.7344 Q168.0563,133.5313 167.9,133.4531 Q167.7125,133.2969 167.3375,133.1953 Q166.9625,133.0938 166.4625,133.0938 Q165.7438,133.0938 165.3219,133.4531 Q164.9,133.8125 164.9,134.2031 Q164.9,134.4688 165.0484,134.7109 Q165.1969,134.9531 165.4938,135.0938 Q165.6813,135.1875 166.7594,135.4063 Q167.8375,135.625 168.3844,135.9141 Q168.9313,136.2031 169.4156,136.8125 Q169.9,137.4219 169.9,138.2813 Q169.9,139.4531 169.2281,140.1563 Q168.3219,141.0938 166.9313,141.0938 Q166.4,141.0938 165.8922,140.8438 Q165.3844,140.5938 164.9,140.0938 Z "/><text fill="#000000" font-family="sans-serif" font-size="12" font-style="italic" lengthAdjust="spacingAndGlyphs" textLength="64" x="178.6" y="133.457">«singleton»</text><text fill="#000000" font-family="sans-serif" font-size="12" lengthAdjust="spacingAndGlyphs" textLength="29" x="196.1" y="148.5508">Store</text><line style="stroke: #A80036; stroke-width: 1.5;" x1="151.5" x2="243.5" y1="156.1875" y2="156.1875"/><line style="stroke: #A80036; stroke-width: 1.5;" x1="151.5" x2="243.5" y1="164.1875" y2="164.1875"/><text fill="#000000" font-family="sans-serif" font-size="11" lengthAdjust="spacingAndGlyphs" textLength="82" x="156.5" y="179.6064">getState() : State</text><!--class Cn--><rect fill="#FEFECE" filter="url(#f1pfpi26qqxhyk)" height="48" id="Cn" style="stroke: #A80036; stroke-width: 1.5;" width="86" x="29.5" y="127"/><ellipse cx="44.5" cy="143" fill="#ADD1B2" rx="11" ry="11" style="stroke: #A80036; stroke-width: 1.0;"/><path d="M46.5,139.5 Q46.7031,139 46.9375,138.75 Q47.1719,138.5 47.4375,138.5 Q47.9063,138.5 48.2031,138.7813 Q48.5,139.0625 48.5,139.7188 L48.5,141.2813 Q48.5,141.9375 48.2188,142.2188 Q47.9375,142.5 47.5,142.5 Q47.1094,142.5 46.8594,142.3281 Q46.6094,142.1563 46.5,141.7031 Q46.4531,141.3906 46.2813,141.2188 Q45.9688,140.8906 45.4063,140.6953 Q44.8438,140.5 44.2813,140.5 Q43.5781,140.5 42.9922,140.7813 Q42.4063,141.0625 41.9531,141.6875 Q41.5,142.3125 41.5,143.1719 L41.5,144.0938 Q41.5,145.125 42.3438,145.8125 Q43.1875,146.5 44.6875,146.5 Q45.5781,146.5 46.2031,146.2969 Q46.5625,146.1875 46.9688,145.8281 Q47.2344,145.625 47.375,145.5625 Q47.5156,145.5 47.6875,145.5 Q48.0156,145.5 48.2578,145.7578 Q48.5,146.0156 48.5,146.375 Q48.5,146.7188 48.1563,147.125 Q47.6563,147.7188 46.8594,148.0469 Q45.8125,148.5 44.5313,148.5 Q43.0313,148.5 41.8281,147.9063 Q40.8594,147.4375 40.1797,146.4219 Q39.5,145.4063 39.5,144.2031 L39.5,143.1094 Q39.5,141.8594 40.1016,140.7656 Q40.7031,139.6719 41.7578,139.0859 Q42.8125,138.5 44,138.5 Q44.7188,138.5 45.3438,138.75 Q45.9688,139 46.5,139.5 Z "/><text fill="#000000" font-family="sans-serif" font-size="12" lengthAdjust="spacingAndGlyphs" textLength="54" x="58.5" y="147.9102">Container</text><line style="stroke: #A80036; stroke-width: 1.5;" x1="30.5" x2="114.5" y1="159" y2="159"/><line style="stroke: #A80036; stroke-width: 1.5;" x1="30.5" x2="114.5" y1="167" y2="167"/><!--class Cm--><rect fill="#FEFECE" filter="url(#f1pfpi26qqxhyk)" height="48" id="Cm" style="stroke: #A80036; stroke-width: 1.5;" width="97" x="24" y="8"/><ellipse cx="39" cy="24" fill="#A9DCDF" rx="11" ry="11" style="stroke: #A80036; stroke-width: 1.0;"/><path d="M40.75,25.5 L37.4531,25.5 L37.0156,26.5 L37.0156,26.5 L37.4844,26.5 L38,27.125 L38,27.5 L38,27.875 L37.4844,28.5 L37.0156,28.5 L35.125,28.5 L34.5156,28.5 L34,27.875 L34,27.5 L34,27.125 L34.5156,26.5 L35.125,26.5 L37.4375,20.5 L36.5625,20.5 L35.5156,20.5 L35,19.875 L35,19.5 L35,19.125 L35.5156,18.5 L36.5625,18.5 L40.2344,18.5 L42.9219,26.5 L43.4844,26.5 L43.4844,26.5 L44,27.125 L44,27.5 L44,27.875 L43.4844,28.5 L42.9219,28.5 L41.0313,28.5 L40.5156,28.5 L40,27.875 L40,27.5 L40,27.125 L40.5156,26.5 L41.0313,26.5 L41.0313,26.5 L40.75,25.5 Z M40.2031,23.5 L39,19.9219 L37.9688,23.5 L40.2031,23.5 Z "/><text fill="#000000" font-family="sans-serif" font-size="12" font-style="italic" lengthAdjust="spacingAndGlyphs" textLength="65" x="53" y="28.9102">Component</text><line style="stroke: #A80036; stroke-width: 1.5;" x1="25" x2="120" y1="40" y2="40"/><line style="stroke: #A80036; stroke-width: 1.5;" x1="25" x2="120" y1="48" y2="48"/><!--link Cm to Cn--><path d="M72.5,76.355 C72.5,93.505 72.5,112.521 72.5,126.933 " fill="none" id="Cm-Cn" style="stroke: #A80036; stroke-width: 1.0;"/><polygon fill="none" points="65.5001,76.115,72.5,56.115,79.5001,76.115,65.5001,76.115" style="stroke: #A80036; stroke-width: 1.0;"/><!--link Cn to Sr--><path d="M121.063,151 C130.828,151 140.593,151 150.358,151 " fill="none" id="Cn-Sr" style="stroke: #A80036; stroke-width: 1.0;"/><polygon fill="#A80036" points="115.957,151,124.957,155,120.957,151,124.957,147,115.957,151" style="stroke: #A80036; stroke-width: 1.0;"/><!--link Cn to St--><path d="M87.3473,179.574 C98.2239,199.773 112.818,226.877 123.079,245.933 " fill="none" id="Cn-St" style="stroke: #A80036; stroke-width: 1.0;"/><polygon fill="#A80036" points="84.9468,175.115,85.6909,184.9357,87.3169,179.5176,92.735,181.1436,84.9468,175.115" style="stroke: #A80036; stroke-width: 1.0;"/><!--link Sr to St--><path d="M173.237,197.786 C164.535,214.207 155.089,232.033 147.824,245.742 " fill="none" id="Sr-St" style="stroke: #A80036; stroke-width: 1.0;"/><polygon fill="#A80036" points="179.4,186.156,173.0562,189.5847,173.7812,196.7593,180.125,193.3306,179.4,186.156" style="stroke: #A80036; stroke-width: 1.0;"/><!--link Sr to R--><path d="M201.664,199.391 C205.887,247.446 212.292,320.351 215.862,360.9744 " fill="none" id="Sr-R" style="stroke: #A80036; stroke-width: 1.0;"/><polygon fill="#A80036" points="200.509,186.243,197.0492,192.5699,201.5587,198.197,205.0185,191.8701,200.509,186.243" style="stroke: #A80036; stroke-width: 1.0;"/><text fill="#000000" font-family="sans-serif" font-size="13" lengthAdjust="spacingAndGlyphs" textLength="20" x="179.2637" y="207.47">1..*</text><!--link A to R--><path d="M77.1074,392 C87.1411,392 97.1749,392 107.209,392 " fill="none" id="A-R" style="stroke: #A80036; stroke-width: 1.0;"/><polygon fill="#A80036" points="112.456,392,103.456,388,107.456,392,103.456,396,112.456,392" style="stroke: #A80036; stroke-width: 1.0;"/><!--link Cn to A--><path d="M68.8127,180.428 C63.2019,223.685 52.5186,306.05 46.3063,353.9451 " fill="none" id="Cn-A" style="stroke: #A80036; stroke-width: 1.0;"/><polygon fill="#A80036" points="69.4711,175.351,64.3471,183.762,68.8282,180.3095,72.2807,184.7906,69.4711,175.351" style="stroke: #A80036; stroke-width: 1.0;"/><!--link St to R--><path d="M151.503,294.137 C163.729,311.814 180.776,336.459 194.614,356.4661 " fill="none" id="St-R" style="stroke: #A80036; stroke-width: 1.0;"/><polygon fill="#A80036" points="197.515,360.6608,195.6842,350.9836,194.6704,356.5489,189.1051,355.535,197.515,360.6608" style="stroke: #A80036; stroke-width: 1.0;"/><!--
@startuml

class A as "Action"{
    type: enum
    other_props
}

class R as "Reducer"{
    reduce(state: State, action: Action): State
}

class St as "State"

class Sr as "Store" <<(S,orange) singleton>> {
    getState() : State
}

class Cn as "Container"

abstract class Cm as "Component"

Cm <|- - Cn
Cn <- Sr
Cn <- - St
Sr *- - St
Sr "1..*" *- - R
A -> R
Cn <- - - A
St -> R

@enduml

PlantUML version 1.2018.11(Sat Sep 22 18:43:53 CEST 2018)
(GPL source distribution)
Java Runtime: OpenJDK Runtime Environment
JVM: OpenJDK 64-Bit Server VM
Java Version: 1.8.0_152-release-1248-b8
Operating System: Windows 10
OS Version: 10.0
Default Encoding: Cp1250
Language: pl
Country: PL
--></g></svg>