<?xml version="1.0" encoding="UTF-8" standalone="no"?><svg xmlns="http://www.w3.org/2000/svg" xmlns:xlink="http://www.w3.org/1999/xlink" contentScriptType="application/ecmascript" contentStyleType="text/css" height="449px" preserveAspectRatio="none" style="width:337px;height:449px;" version="1.1" viewBox="0 0 337 449" width="337px" zoomAndPan="magnify"><defs><filter height="300%" id="f8gayyeqjubku" width="300%" x="-1" y="-1"><feGaussianBlur result="blurOut" stdDeviation="2.0"/><feColorMatrix in="blurOut" result="blurOut2" type="matrix" values="0 0 0 0 0 0 0 0 0 0 0 0 0 0 0 0 0 0 .4 0"/><feOffset dx="4.0" dy="4.0" in="blurOut2" result="blurOut3"/><feBlend in="SourceGraphic" in2="blurOut3" mode="normal"/></filter></defs><g><!--class ParametryWykresu--><rect fill="#FEFECE" filter="url(#f8gayyeqjubku)" height="75.6719" id="ParametryWykresu" style="stroke: #A80036; stroke-width: 1.5;" width="135" x="6" y="8"/><ellipse cx="21" cy="24" fill="#ADD1B2" rx="11" ry="11" style="stroke: #A80036; stroke-width: 1.0;"/><path d="M23,20.5 Q23.2031,20 23.4375,19.75 Q23.6719,19.5 23.9375,19.5 Q24.4063,19.5 24.7031,19.7813 Q25,20.0625 25,20.7188 L25,22.2813 Q25,22.9375 24.7188,23.2188 Q24.4375,23.5 24,23.5 Q23.6094,23.5 23.3594,23.3281 Q23.1094,23.1563 23,22.7031 Q22.9531,22.3906 22.7813,22.2188 Q22.4688,21.8906 21.9063,21.6953 Q21.3438,21.5 20.7813,21.5 Q20.0781,21.5 19.4922,21.7813 Q18.9063,22.0625 18.4531,22.6875 Q18,23.3125 18,24.1719 L18,25.0938 Q18,26.125 18.8438,26.8125 Q19.6875,27.5 21.1875,27.5 Q22.0781,27.5 22.7031,27.2969 Q23.0625,27.1875 23.4688,26.8281 Q23.7344,26.625 23.875,26.5625 Q24.0156,26.5 24.1875,26.5 Q24.5156,26.5 24.7578,26.7578 Q25,27.0156 25,27.375 Q25,27.7188 24.6563,28.125 Q24.1563,28.7188 23.3594,29.0469 Q22.3125,29.5 21.0313,29.5 Q19.5313,29.5 18.3281,28.9063 Q17.3594,28.4375 16.6797,27.4219 Q16,26.4063 16,25.2031 L16,24.1094 Q16,22.8594 16.6016,21.7656 Q17.2031,20.6719 18.2578,20.0859 Q19.3125,19.5 20.5,19.5 Q21.2188,19.5 21.8438,19.75 Q22.4688,20 23,20.5 Z "/><text fill="#000000" font-family="sans-serif" font-size="12" lengthAdjust="spacingAndGlyphs" textLength="103" x="35" y="28.9102">ParametryWykresu</text><line style="stroke: #A80036; stroke-width: 1.5;" x1="7" x2="140" y1="40" y2="40"/><text fill="#000000" font-family="sans-serif" font-size="11" lengthAdjust="spacingAndGlyphs" textLength="59" x="12" y="55.4189">+tytuł: string</text><text fill="#000000" font-family="sans-serif" font-size="11" lengthAdjust="spacingAndGlyphs" textLength="88" x="12" y="69.2549">+typ: TypWykresu</text><line style="stroke: #A80036; stroke-width: 1.5;" x1="7" x2="140" y1="75.6719" y2="75.6719"/><!--class TypWykresu--><rect fill="#FEFECE" filter="url(#f8gayyeqjubku)" height="131.0156" id="TypWykresu" style="stroke: #A80036; stroke-width: 1.5;" width="123" x="12" y="144"/><ellipse cx="38.25" cy="160" fill="#EB937F" rx="11" ry="11" style="stroke: #A80036; stroke-width: 1.0;"/><path d="M36.75,161 L36.75,163 L40.75,163 L40.75,162 L40.75,161.5156 L41.375,161 L41.75,161 L42.125,161 L42.75,161.5156 L42.75,162 L42.75,165 L34.75,165 L34.2656,165 L33.75,164.375 L33.75,164 L33.75,163.625 L34.2656,163 L34.75,163 L34.75,163 L34.75,157 L34.75,157 L34.2656,157 L33.75,156.375 L33.75,156 L33.75,155.625 L34.2656,155 L34.75,155 L42.75,155 L42.75,158 L42.75,158.4844 L42.125,159 L41.75,159 L41.375,159 L40.75,158.4844 L40.75,158 L40.75,157 L36.75,157 L36.75,159 L37.75,159 L37.75,158.5156 L37.75,158.5156 L38.375,158 L38.75,158 L39.125,158 L39.75,158.5156 L39.75,159 L39.75,161 L39.75,161.4844 L39.125,162 L39.125,162 L38.75,162 L38.375,162 L37.75,161.4844 L37.75,161.4844 L37.75,161 L36.75,161 Z "/><text fill="#000000" font-family="sans-serif" font-size="12" lengthAdjust="spacingAndGlyphs" textLength="66" x="54.75" y="164.9102">TypWykresu</text><line style="stroke: #A80036; stroke-width: 1.5;" x1="13" x2="134" y1="176" y2="176"/><text fill="#000000" font-family="sans-serif" font-size="11" lengthAdjust="spacingAndGlyphs" textLength="59" x="18" y="191.4189">PUNKTOWY</text><text fill="#000000" font-family="sans-serif" font-size="11" lengthAdjust="spacingAndGlyphs" textLength="109" x="18" y="205.2549">SŁUPKOWY POZIOMY</text><text fill="#000000" font-family="sans-serif" font-size="11" lengthAdjust="spacingAndGlyphs" textLength="111" x="18" y="219.0908">SŁUPKOWY PIONOWY</text><text fill="#000000" font-family="sans-serif" font-size="11" lengthAdjust="spacingAndGlyphs" textLength="43" x="18" y="232.9268">LINIOWY</text><text fill="#000000" font-family="sans-serif" font-size="11" lengthAdjust="spacingAndGlyphs" textLength="74" x="18" y="246.7627">WARSTWOWY</text><text fill="#000000" font-family="sans-serif" font-size="11" lengthAdjust="spacingAndGlyphs" textLength="47" x="18" y="260.5986">KOŁOWY</text><line style="stroke: #A80036; stroke-width: 1.5;" x1="13" x2="134" y1="267.0156" y2="267.0156"/><!--class SerieDanych--><rect fill="#FEFECE" filter="url(#f8gayyeqjubku)" height="61.8359" id="SerieDanych" style="stroke: #A80036; stroke-width: 1.5;" width="150" x="176.5" y="15"/><ellipse cx="213.1" cy="31" fill="#ADD1B2" rx="11" ry="11" style="stroke: #A80036; stroke-width: 1.0;"/><path d="M215.1,27.5 Q215.3031,27 215.5375,26.75 Q215.7719,26.5 216.0375,26.5 Q216.5063,26.5 216.8031,26.7813 Q217.1,27.0625 217.1,27.7188 L217.1,29.2813 Q217.1,29.9375 216.8188,30.2188 Q216.5375,30.5 216.1,30.5 Q215.7094,30.5 215.4594,30.3281 Q215.2094,30.1563 215.1,29.7031 Q215.0531,29.3906 214.8813,29.2188 Q214.5688,28.8906 214.0063,28.6953 Q213.4438,28.5 212.8813,28.5 Q212.1781,28.5 211.5922,28.7813 Q211.0063,29.0625 210.5531,29.6875 Q210.1,30.3125 210.1,31.1719 L210.1,32.0938 Q210.1,33.125 210.9438,33.8125 Q211.7875,34.5 213.2875,34.5 Q214.1781,34.5 214.8031,34.2969 Q215.1625,34.1875 215.5688,33.8281 Q215.8344,33.625 215.975,33.5625 Q216.1156,33.5 216.2875,33.5 Q216.6156,33.5 216.8578,33.7578 Q217.1,34.0156 217.1,34.375 Q217.1,34.7188 216.7563,35.125 Q216.2563,35.7188 215.4594,36.0469 Q214.4125,36.5 213.1313,36.5 Q211.6313,36.5 210.4281,35.9063 Q209.4594,35.4375 208.7797,34.4219 Q208.1,33.4063 208.1,32.2031 L208.1,31.1094 Q208.1,29.8594 208.7016,28.7656 Q209.3031,27.6719 210.3578,27.0859 Q211.4125,26.5 212.6,26.5 Q213.3188,26.5 213.9438,26.75 Q214.5688,27 215.1,27.5 Z "/><text fill="#000000" font-family="sans-serif" font-size="12" lengthAdjust="spacingAndGlyphs" textLength="70" x="231.9" y="35.9102">SerieDanych</text><line style="stroke: #A80036; stroke-width: 1.5;" x1="177.5" x2="325.5" y1="47" y2="47"/><text fill="#000000" font-family="sans-serif" font-size="11" lengthAdjust="spacingAndGlyphs" textLength="138" x="182.5" y="62.4189">+dane: Array&lt;SeriaDanych&gt;</text><line style="stroke: #A80036; stroke-width: 1.5;" x1="177.5" x2="325.5" y1="68.8359" y2="68.8359"/><!--class SeriaDanych--><rect fill="#FEFECE" filter="url(#f8gayyeqjubku)" height="89.5078" id="SeriaDanych" style="stroke: #A80036; stroke-width: 1.5;" width="114" x="194.5" y="164.5"/><ellipse cx="214.9" cy="180.5" fill="#ADD1B2" rx="11" ry="11" style="stroke: #A80036; stroke-width: 1.0;"/><path d="M216.9,177 Q217.1031,176.5 217.3375,176.25 Q217.5719,176 217.8375,176 Q218.3063,176 218.6031,176.2813 Q218.9,176.5625 218.9,177.2188 L218.9,178.7813 Q218.9,179.4375 218.6188,179.7188 Q218.3375,180 217.9,180 Q217.5094,180 217.2594,179.8281 Q217.0094,179.6563 216.9,179.2031 Q216.8531,178.8906 216.6813,178.7188 Q216.3688,178.3906 215.8063,178.1953 Q215.2438,178 214.6813,178 Q213.9781,178 213.3922,178.2813 Q212.8063,178.5625 212.3531,179.1875 Q211.9,179.8125 211.9,180.6719 L211.9,181.5938 Q211.9,182.625 212.7438,183.3125 Q213.5875,184 215.0875,184 Q215.9781,184 216.6031,183.7969 Q216.9625,183.6875 217.3688,183.3281 Q217.6344,183.125 217.775,183.0625 Q217.9156,183 218.0875,183 Q218.4156,183 218.6578,183.2578 Q218.9,183.5156 218.9,183.875 Q218.9,184.2188 218.5563,184.625 Q218.0563,185.2188 217.2594,185.5469 Q216.2125,186 214.9313,186 Q213.4313,186 212.2281,185.4063 Q211.2594,184.9375 210.5797,183.9219 Q209.9,182.9063 209.9,181.7031 L209.9,180.6094 Q209.9,179.3594 210.5016,178.2656 Q211.1031,177.1719 212.1578,176.5859 Q213.2125,176 214.4,176 Q215.1188,176 215.7438,176.25 Q216.3688,176.5 216.9,177 Z "/><text fill="#000000" font-family="sans-serif" font-size="12" lengthAdjust="spacingAndGlyphs" textLength="70" x="230.1" y="185.4102">SeriaDanych</text><line style="stroke: #A80036; stroke-width: 1.5;" x1="195.5" x2="307.5" y1="196.5" y2="196.5"/><text fill="#000000" font-family="sans-serif" font-size="11" lengthAdjust="spacingAndGlyphs" textLength="76" x="200.5" y="211.9189">+etykieta: string</text><text fill="#000000" font-family="sans-serif" font-size="11" lengthAdjust="spacingAndGlyphs" textLength="62" x="200.5" y="225.7549">+kolor: string</text><text fill="#000000" font-family="sans-serif" font-size="11" lengthAdjust="spacingAndGlyphs" textLength="102" x="200.5" y="239.5908">+dane: Array&lt;Punkt&gt;</text><line style="stroke: #A80036; stroke-width: 1.5;" x1="195.5" x2="307.5" y1="246.0078" y2="246.0078"/><!--class Punkt--><rect fill="#FEFECE" filter="url(#f8gayyeqjubku)" height="103.3438" id="Punkt" style="stroke: #A80036; stroke-width: 1.5;" width="136" x="183.5" y="335"/><ellipse cx="231.75" cy="351" fill="#ADD1B2" rx="11" ry="11" style="stroke: #A80036; stroke-width: 1.0;"/><path d="M233.75,347.5 Q233.9531,347 234.1875,346.75 Q234.4219,346.5 234.6875,346.5 Q235.1563,346.5 235.4531,346.7813 Q235.75,347.0625 235.75,347.7188 L235.75,349.2813 Q235.75,349.9375 235.4688,350.2188 Q235.1875,350.5 234.75,350.5 Q234.3594,350.5 234.1094,350.3281 Q233.8594,350.1563 233.75,349.7031 Q233.7031,349.3906 233.5313,349.2188 Q233.2188,348.8906 232.6563,348.6953 Q232.0938,348.5 231.5313,348.5 Q230.8281,348.5 230.2422,348.7813 Q229.6563,349.0625 229.2031,349.6875 Q228.75,350.3125 228.75,351.1719 L228.75,352.0938 Q228.75,353.125 229.5938,353.8125 Q230.4375,354.5 231.9375,354.5 Q232.8281,354.5 233.4531,354.2969 Q233.8125,354.1875 234.2188,353.8281 Q234.4844,353.625 234.625,353.5625 Q234.7656,353.5 234.9375,353.5 Q235.2656,353.5 235.5078,353.7578 Q235.75,354.0156 235.75,354.375 Q235.75,354.7188 235.4063,355.125 Q234.9063,355.7188 234.1094,356.0469 Q233.0625,356.5 231.7813,356.5 Q230.2813,356.5 229.0781,355.9063 Q228.1094,355.4375 227.4297,354.4219 Q226.75,353.4063 226.75,352.2031 L226.75,351.1094 Q226.75,349.8594 227.3516,348.7656 Q227.9531,347.6719 229.0078,347.0859 Q230.0625,346.5 231.25,346.5 Q231.9688,346.5 232.5938,346.75 Q233.2188,347 233.75,347.5 Z "/><text fill="#000000" font-family="sans-serif" font-size="12" lengthAdjust="spacingAndGlyphs" textLength="31" x="252.25" y="355.9102">Punkt</text><line style="stroke: #A80036; stroke-width: 1.5;" x1="184.5" x2="318.5" y1="367" y2="367"/><text fill="#000000" font-family="sans-serif" font-size="11" lengthAdjust="spacingAndGlyphs" textLength="45" x="189.5" y="382.4189">+x: string</text><text fill="#000000" font-family="sans-serif" font-size="11" lengthAdjust="spacingAndGlyphs" textLength="45" x="189.5" y="396.2549">+y: string</text><text fill="#000000" font-family="sans-serif" font-size="11" lengthAdjust="spacingAndGlyphs" textLength="124" x="189.5" y="410.0908">+czy_poprawny: boolean</text><text fill="#000000" font-family="sans-serif" font-size="11" lengthAdjust="spacingAndGlyphs" textLength="76" x="189.5" y="423.9268">+etykieta: string</text><line style="stroke: #A80036; stroke-width: 1.5;" x1="184.5" x2="318.5" y1="430.3438" y2="430.3438"/><!--link ParametryWykresu to TypWykresu--><path d="M73.5,97.083 C73.5,111.84 73.5,128.202 73.5,143.741 " fill="none" id="ParametryWykresu-TypWykresu" style="stroke: #A80036; stroke-width: 1.0;"/><polygon fill="#A80036" points="73.5,84.051,69.5,90.051,73.5,96.051,77.5,90.051,73.5,84.051" style="stroke: #A80036; stroke-width: 1.0;"/><text fill="#000000" font-family="sans-serif" font-size="13" lengthAdjust="spacingAndGlyphs" textLength="7" x="65.9203" y="105.2296">1</text><!--link SerieDanych to SeriaDanych--><path d="M251.5,90.505 C251.5,113.345 251.5,141.276 251.5,164.229 " fill="none" id="SerieDanych-SeriaDanych" style="stroke: #A80036; stroke-width: 1.0;"/><polygon fill="#FFFFFF" points="251.5,77.377,247.5,83.377,251.5,89.377,255.5,83.377,251.5,77.377" style="stroke: #A80036; stroke-width: 1.0;"/><text fill="#000000" font-family="sans-serif" font-size="13" lengthAdjust="spacingAndGlyphs" textLength="20" x="229.5938" y="98.4275">0..*</text><!--link SeriaDanych to Punkt--><path d="M251.5,267.719 C251.5,289.369 251.5,313.841 251.5,334.846 " fill="none" id="SeriaDanych-Punkt" style="stroke: #A80036; stroke-width: 1.0;"/><polygon fill="#FFFFFF" points="251.5,254.66,247.5,260.66,251.5,266.66,255.5,260.66,251.5,254.66" style="stroke: #A80036; stroke-width: 1.0;"/><text fill="#000000" font-family="sans-serif" font-size="13" lengthAdjust="spacingAndGlyphs" textLength="20" x="230.1563" y="275.3552">0..*</text><!--
@startuml

skinparam classAttributeIconSize 0

ParametryWykresu "1" *- - TypWykresu
SerieDanych "0..*" o- - SeriaDanych
SeriaDanych "0..*" o- - Punkt

class ParametryWykresu {
    + tytuł: string
    + typ: TypWykresu
}

enum TypWykresu {
    PUNKTOWY
    SŁUPKOWY POZIOMY
    SŁUPKOWY PIONOWY
    LINIOWY
    WARSTWOWY
    KOŁOWY
}

class SerieDanych {
    + dane: Array<SeriaDanych>
}

class SeriaDanych {
    + etykieta: string
    + kolor: string
    + dane: Array<Punkt>
}

class Punkt {
    + x: string
    + y: string
    + czy_poprawny: boolean
    + etykieta: string
}

@enduml

PlantUML version 1.2018.11(Sat Sep 22 18:43:53 CEST 2018)
(GPL source distribution)
Java Runtime: OpenJDK Runtime Environment
JVM: OpenJDK 64-Bit Server VM
Java Version: 1.8.0_152-release-1248-b8
Operating System: Windows 10
OS Version: 10.0
Default Encoding: Cp1250
Language: pl
Country: PL
--></g></svg>